<svg xmlns="http://www.w3.org/2000/svg" xmlns:xlink="http://www.w3.org/1999/xlink" width="1748" zoomAndPan="magnify" viewBox="0 0 1311 599.999999" height="800" preserveAspectRatio="xMidYMid meet" version="1.0"><defs><g/><clipPath id="2b83f15627"><path d="M 1151.644531 30.117188 L 1254.144531 30.117188 L 1254.144531 132.617188 L 1151.644531 132.617188 Z M 1151.644531 30.117188 " clip-rule="nonzero"/></clipPath><clipPath id="99167f9b15"><path d="M 1202.894531 30.117188 C 1174.589844 30.117188 1151.644531 53.0625 1151.644531 81.367188 C 1151.644531 109.671875 1174.589844 132.617188 1202.894531 132.617188 C 1231.199219 132.617188 1254.144531 109.671875 1254.144531 81.367188 C 1254.144531 53.0625 1231.199219 30.117188 1202.894531 30.117188 Z M 1202.894531 30.117188 " clip-rule="nonzero"/></clipPath><clipPath id="d89125d328"><path d="M 0.644531 0.117188 L 103.144531 0.117188 L 103.144531 102.617188 L 0.644531 102.617188 Z M 0.644531 0.117188 " clip-rule="nonzero"/></clipPath><clipPath id="e51af8c9fb"><path d="M 51.894531 0.117188 C 23.589844 0.117188 0.644531 23.0625 0.644531 51.367188 C 0.644531 79.671875 23.589844 102.617188 51.894531 102.617188 C 80.199219 102.617188 103.144531 79.671875 103.144531 51.367188 C 103.144531 23.0625 80.199219 0.117188 51.894531 0.117188 Z M 51.894531 0.117188 " clip-rule="nonzero"/></clipPath><clipPath id="2b7ed92082"><rect x="0" width="104" y="0" height="103"/></clipPath><clipPath id="3dd5c315f4"><rect x="0" width="1311" y="0" height="600"/></clipPath></defs><g transform="matrix(1, 0, 0, 1, 0, -0.000000000000034788)"><g clip-path="url(#3dd5c315f4)"><g fill="#191918" fill-opacity="1"><g transform="translate(0.539187, 548.752969)"><g><path d="M 178 -99.84375 C 178 -84.132812 178.71875 -71.523438 180.15625 -62.015625 C 181.601562 -52.503906 184.394531 -45.0625 188.53125 -39.6875 C 192.664062 -34.3125 198.554688 -30.585938 206.203125 -28.515625 C 213.859375 -26.453125 224.09375 -25.21875 236.90625 -24.8125 L 236.90625 0 L 21.703125 0 L 21.703125 -24.8125 C 35.347656 -25.21875 46.507812 -26.453125 55.1875 -28.515625 C 63.875 -30.585938 70.488281 -34.101562 75.03125 -39.0625 C 79.582031 -44.03125 82.6875 -51.0625 84.34375 -60.15625 C 86 -69.25 86.828125 -81.035156 86.828125 -95.515625 L 86.828125 -382.03125 C 86.828125 -396.09375 86.101562 -407.671875 84.65625 -416.765625 C 83.207031 -425.859375 80.414062 -432.882812 76.28125 -437.84375 C 72.144531 -442.8125 66.253906 -446.328125 58.609375 -448.390625 C 50.960938 -450.460938 40.9375 -451.910156 28.53125 -452.734375 L 28.53125 -477.546875 L 242.5 -477.546875 L 242.5 -452.734375 C 228.4375 -452.316406 217.164062 -451.078125 208.6875 -449.015625 C 200.21875 -446.953125 193.707031 -443.234375 189.15625 -437.859375 C 184.601562 -432.484375 181.601562 -425.039062 180.15625 -415.53125 C 178.71875 -406.019531 178 -393.40625 178 -377.6875 L 178 -240.015625 L 338.625 -412.421875 C 348.132812 -422.753906 352.890625 -431.4375 352.890625 -438.46875 C 352.890625 -443.019531 349.890625 -446.535156 343.890625 -449.015625 C 337.898438 -451.492188 326.84375 -452.734375 310.71875 -452.734375 L 310.71875 -477.546875 L 480.03125 -477.546875 L 480.03125 -453.359375 C 470.925781 -452.941406 462.960938 -452.113281 456.140625 -450.875 C 449.328125 -449.632812 442.507812 -446.945312 435.6875 -442.8125 C 428.863281 -438.675781 421.210938 -432.785156 412.734375 -425.140625 C 404.253906 -417.492188 393.816406 -407.257812 381.421875 -394.4375 L 271.015625 -279.078125 L 453.359375 -57.0625 C 462.035156 -46.3125 471.644531 -38.453125 482.1875 -33.484375 C 492.738281 -28.523438 506.28125 -25.632812 522.8125 -24.8125 L 522.8125 0 L 293.34375 0 L 293.34375 -24.8125 C 310.300781 -25.21875 322.5 -26.660156 329.9375 -29.140625 C 337.382812 -31.628906 341.109375 -35.765625 341.109375 -41.546875 C 341.109375 -43.617188 340.796875 -45.582031 340.171875 -47.4375 C 339.554688 -49.300781 338.523438 -51.578125 337.078125 -54.265625 C 335.628906 -56.953125 333.457031 -60.257812 330.5625 -64.1875 C 327.664062 -68.113281 323.738281 -72.972656 318.78125 -78.765625 L 209 -213.96875 L 178 -181.71875 Z M 178 -99.84375 "/></g></g></g><g fill="#191918" fill-opacity="1"><g transform="translate(510.337838, 548.752969)"><g><path d="M 153.1875 -101.703125 C 153.1875 -85.171875 153.804688 -71.941406 155.046875 -62.015625 C 156.285156 -52.097656 158.765625 -44.453125 162.484375 -39.078125 C 166.210938 -33.703125 171.585938 -30.082031 178.609375 -28.21875 C 185.640625 -26.351562 195.148438 -25.21875 207.140625 -24.8125 L 207.140625 0 L 11.78125 0 L 11.78125 -24.8125 C 23.363281 -25.21875 32.769531 -26.554688 40 -28.828125 C 47.238281 -31.109375 52.820312 -34.832031 56.75 -40 C 60.675781 -45.164062 63.363281 -52.398438 64.8125 -61.703125 C 66.257812 -71.003906 66.984375 -82.894531 66.984375 -97.375 L 66.984375 -353.5 C 66.984375 -377.488281 66.566406 -397.234375 65.734375 -412.734375 C 64.910156 -428.234375 63.878906 -438.878906 62.640625 -444.671875 C 60.566406 -455.003906 55.910156 -461.828125 48.671875 -465.140625 C 41.441406 -468.453125 28.316406 -470.109375 9.296875 -470.109375 L 9.296875 -491.1875 L 153.1875 -514.75 Z M 153.1875 -101.703125 "/></g></g><g transform="translate(730.506344, 548.752969)"><g><path d="M 213.34375 -176.75 C 178.613281 -161.039062 152.460938 -146.46875 134.890625 -133.03125 C 117.316406 -119.59375 108.53125 -105.640625 108.53125 -91.171875 C 108.53125 -79.179688 111.835938 -69.671875 118.453125 -62.640625 C 125.066406 -55.609375 133.335938 -52.09375 143.265625 -52.09375 C 153.179688 -52.09375 162.484375 -53.847656 171.171875 -57.359375 C 179.859375 -60.878906 187.300781 -65.53125 193.5 -71.3125 C 199.695312 -77.101562 204.550781 -84.03125 208.0625 -92.09375 C 211.582031 -100.15625 213.34375 -108.734375 213.34375 -117.828125 Z M 213.34375 -209.625 L 213.34375 -235.671875 C 213.34375 -259.648438 209.101562 -277.117188 200.625 -288.078125 C 192.15625 -299.035156 179.03125 -304.515625 161.25 -304.515625 C 149.257812 -304.515625 140.160156 -301.304688 133.953125 -294.890625 C 127.753906 -288.484375 121.96875 -277.835938 116.59375 -262.953125 C 112.875 -252.617188 107.601562 -244.554688 100.78125 -238.765625 C 93.957031 -232.984375 84.550781 -230.09375 72.5625 -230.09375 C 60.988281 -230.09375 52.097656 -233.601562 45.890625 -240.625 C 39.691406 -247.65625 36.59375 -257.582031 36.59375 -270.40625 C 36.59375 -290.25 47.441406 -305.957031 69.140625 -317.53125 C 90.847656 -329.113281 123.617188 -334.90625 167.453125 -334.90625 C 213.753906 -334.90625 246.828125 -326.53125 266.671875 -309.78125 C 286.523438 -293.039062 296.453125 -265.03125 296.453125 -225.75 L 296.453125 -89.921875 C 296.453125 -54.785156 303.476562 -37.21875 317.53125 -37.21875 C 325.382812 -37.21875 332.625 -39.90625 339.25 -45.28125 L 348.546875 -27.28125 C 342.753906 -16.945312 333.757812 -8.78125 321.5625 -2.78125 C 309.363281 3.207031 295.617188 6.203125 280.328125 6.203125 C 261.304688 6.203125 246.832031 0.414062 236.90625 -11.15625 C 226.988281 -22.738281 222.03125 -39.070312 222.03125 -60.15625 L 218.921875 -60.15625 C 206.929688 -38.65625 191.425781 -22.320312 172.40625 -11.15625 C 153.394531 0 131.691406 5.578125 107.296875 5.578125 C 81.242188 5.578125 60.363281 -1.757812 44.65625 -16.4375 C 28.945312 -31.113281 21.09375 -50.234375 21.09375 -73.796875 C 21.09375 -91.992188 29.15625 -109.050781 45.28125 -124.96875 C 61.40625 -140.882812 88.273438 -156.492188 125.890625 -171.796875 Z M 213.34375 -209.625 "/></g></g></g><g fill="#191918" fill-opacity="1"><g transform="translate(1086.497137, 548.752969)"><g><path d="M 159.390625 -101.703125 C 159.390625 -85.171875 160.007812 -71.941406 161.25 -62.015625 C 162.488281 -52.097656 164.96875 -44.453125 168.6875 -39.078125 C 172.40625 -33.703125 177.78125 -30.082031 184.8125 -28.21875 C 191.84375 -26.351562 201.351562 -25.21875 213.34375 -24.8125 L 213.34375 0 L 17.984375 0 L 17.984375 -24.8125 C 29.554688 -25.21875 38.960938 -26.554688 46.203125 -28.828125 C 53.441406 -31.109375 59.023438 -34.832031 62.953125 -40 C 66.878906 -45.164062 69.566406 -52.398438 71.015625 -61.703125 C 72.460938 -71.003906 73.1875 -82.894531 73.1875 -97.375 L 73.1875 -173.65625 C 73.1875 -197.632812 72.769531 -217.375 71.9375 -232.875 C 71.113281 -248.382812 70.082031 -259.03125 68.84375 -264.8125 C 66.769531 -275.15625 62.113281 -281.976562 54.875 -285.28125 C 47.644531 -288.59375 34.519531 -290.25 15.5 -290.25 L 15.5 -311.328125 L 159.390625 -334.90625 Z M 68.21875 -466.375 C 68.21875 -480.019531 72.867188 -491.492188 82.171875 -500.796875 C 91.472656 -510.097656 102.738281 -514.75 115.96875 -514.75 C 129.613281 -514.75 141.085938 -510.097656 150.390625 -500.796875 C 159.691406 -491.492188 164.34375 -480.019531 164.34375 -466.375 C 164.34375 -453.144531 159.691406 -441.878906 150.390625 -432.578125 C 141.085938 -423.273438 129.613281 -418.625 115.96875 -418.625 C 102.738281 -418.625 91.472656 -423.273438 82.171875 -432.578125 C 72.867188 -441.878906 68.21875 -453.144531 68.21875 -466.375 Z M 68.21875 -466.375 "/></g></g></g><g clip-path="url(#2b83f15627)"><g clip-path="url(#99167f9b15)"><g transform="matrix(1, 0, 0, 1, 1151, 30)"><g clip-path="url(#2b7ed92082)"><g clip-path="url(#d89125d328)"><g clip-path="url(#e51af8c9fb)"><path fill="#89d957" d="M 0.644531 0.117188 L 103.144531 0.117188 L 103.144531 102.617188 L 0.644531 102.617188 Z M 0.644531 0.117188 " fill-opacity="1" fill-rule="nonzero"/></g></g></g></g></g></g></g></g></svg>