<svg width="106" height="106" viewBox="0 0 106 106" fill="none" xmlns="http://www.w3.org/2000/svg">
<path d="M0 17.5666C0 27.267 7.86018 36.5436 17.5605 36.5436C27.2609 36.5436 36.5434 27.267 36.5434 17.5666C36.5434 7.86625 27.2609 0.006073 17.5605 0.006073C7.86018 0.006073 0 7.86625 0 17.5666Z" fill="#fcaa2d"/>
<path d="M0 87.0532C0 97.0109 7.86018 105.08 17.5605 105.08C27.2609 105.08 35.5283 97.0109 35.5283 87.0532C35.5283 77.0954 27.2609 69.0266 17.5605 69.0266C7.86018 69.0266 0 77.0954 0 87.0532Z" fill="#fcaa2d"/>
<path d="M84.2465 70.0417C79.8826 70.2126 78.4675 68.8677 75.3787 65.7788L74.9186 65.3188C68.4986 58.8988 68.492 46.4895 74.9055 40.0624L75.3787 39.5892C78.4675 36.5003 82.7197 34.9427 87.0835 35.107C87.9247 35.1399 88.7791 35.107 89.6466 35.0216C97.4805 34.2001 104.664 26.8065 105.268 18.9529C106.096 8.16819 97.1782 -0.763238 86.3935 0.0516971C78.7567 0.630038 71.0604 5.60564 70.0352 13.1964C69.9169 14.0573 70.1933 16.863 70.1999 17.6977C70.21 18.9838 70.0497 20.1666 69.7607 21.2772C67.7771 28.8978 60.8887 34.7174 53.0205 35.0334C52.1494 35.0684 51.231 35.1296 50.2471 35.2648C42.3212 36.3426 35.3451 41.7876 34.5104 49.7398C33.4063 60.288 42.3541 70.2215 52.6788 70.2215C52.6985 70.2215 52.7182 70.2215 52.7379 70.2215C56.9112 70.2084 60.9333 71.7265 63.8841 74.6774L65.7112 76.5044C71.5078 82.3011 67.9724 92.9393 73.4533 99.0354C76.577 102.51 81.3815 104.923 86.4 105.303C97.1848 106.118 106.103 97.1867 105.275 86.402C104.67 78.5484 99.1861 70.8632 91.3522 70.0417C88.9415 69.5667 86.6945 69.9461 84.2465 70.0417Z" fill="#fcaa2d"/>
</svg>
