<svg width="316" height="98" viewBox="0 0 316 98" fill="none" xmlns="http://www.w3.org/2000/svg">
<path d="M0 19.3797C0 27.8754 6.88293 36 15.3772 36C23.8716 36 32 27.8754 32 19.3797C32 10.884 23.8716 4 15.3772 4C6.88293 4 0 10.884 0 19.3797Z" fill="black"/>
<path d="M0 81.5C0 90.6145 6.85834 98 15.3223 98C23.7863 98 31 90.6145 31 81.5C31 72.3855 23.7863 65 15.3223 65C6.85834 65 0 72.3855 0 81.5Z" fill="black"/>
<path d="M75.2699 66.4928C71.3929 66.6452 70.1356 65.4453 67.3913 62.6894L66.9826 62.2789C61.2788 56.5508 61.2729 45.4789 66.9709 39.7446L67.3913 39.3224C70.1356 36.5664 73.9134 35.1767 77.7904 35.3233C78.5378 35.3526 79.2969 35.3233 80.0676 35.2471C87.0276 34.5141 93.4095 27.9174 93.9467 20.9102C94.6824 11.2878 86.759 3.31902 77.1774 4.04613C70.3926 4.56213 63.5548 9.00148 62.6439 15.7741C62.5388 16.5422 62.7844 19.0456 62.7903 19.7903C62.7993 20.9378 62.6569 21.9931 62.4 22.984C60.6377 29.7833 54.5178 34.9756 47.5273 35.2576C46.7534 35.2888 45.9374 35.3434 45.0633 35.464C38.0216 36.4257 31.8237 41.2838 31.0821 48.379C30.1012 57.7903 38.0508 66.6532 47.2237 66.6532C47.2413 66.6532 47.2588 66.6532 47.2763 66.6532C50.984 66.6415 54.5574 67.996 57.1791 70.6289L58.8023 72.259C63.9523 77.4309 60.8113 86.9225 65.6808 92.3616C68.4559 95.4614 72.7245 97.6148 77.1832 97.9539C86.7649 98.681 94.6883 90.7122 93.9526 81.0898C93.4154 74.0826 88.5429 67.2258 81.5829 66.4928C79.4412 66.0689 77.4448 66.4075 75.2699 66.4928Z" fill="black"/>
<path d="M297.368 10.2012C297.495 9.69113 297.559 8.94729 297.559 7.96967C297.559 6.99206 298.069 5.99319 299.089 4.97307C300.152 3.91045 301.703 3.37914 303.744 3.37914L305.465 3.18787H306.931L307.25 3.25162L309.227 3.4429C309.397 3.4854 309.588 3.50665 309.8 3.50665C312.861 3.50665 314.391 5.20685 314.391 8.60725L314.582 10.3925V11.8589L314.455 13.0703L314.263 14.4729C314.263 17.8733 311.458 19.5735 305.848 19.5735H305.274L304.955 19.5098L302.723 19.3185C302.511 19.276 302.32 19.2547 302.15 19.2547C299.132 19.2547 297.623 17.7246 297.623 14.6642C297.538 14.2392 297.495 13.9416 297.495 13.7716L297.368 12.624V10.2012ZM305.848 94.5523H304.19C301.087 94.5523 299.195 94.1272 298.515 93.2771C297.41 91.8745 296.858 89.4092 296.858 85.8813C296.858 82.3534 297.028 79.208 297.368 76.4452C297.75 73.6824 297.942 72.0672 297.942 71.5996L298.005 69.9419C298.005 69.3894 298.005 68.8368 298.005 68.2842L298.069 66.6265V58.1468L298.133 55.5965V52.2173L298.069 49.667C298.069 49.1145 298.069 48.5619 298.069 48.0094L298.005 46.3517L296.348 36.1505V34.6203C296.348 32.5801 296.773 31.3049 297.623 30.7948C298.515 30.2848 300.322 30.0298 303.042 30.0298H305.529C309.524 30.0298 311.883 31.1349 312.606 33.3451C312.988 34.4928 313.18 40.0822 313.18 50.1133C313.18 60.1445 313.243 65.9464 313.371 67.5191C313.498 69.0493 313.86 71.5359 314.455 74.9788C315.092 78.3792 315.411 80.7169 315.411 81.9921L315.539 83.586V85.945C315.539 89.8555 314.944 92.2783 313.753 93.2134C312.563 94.106 309.928 94.5523 305.848 94.5523Z" fill="black"/>
<path d="M239.285 75.5526C239.285 77.7203 240.369 79.5268 242.537 80.9719C244.705 82.4171 247.043 83.1397 249.55 83.1397H251.399C255.692 83.1397 259.05 81.5883 261.473 78.4854C262.536 77.1252 263.067 74.3624 263.067 70.1969L263.131 69.4318V67.8379C263.131 65.1601 261.707 63.8212 258.859 63.8212H253.695C249.019 63.8212 245.427 64.6075 242.92 66.1802C240.412 67.7529 239.158 69.6656 239.158 71.9184V74.2774C239.243 74.8725 239.285 75.2975 239.285 75.5526ZM262.429 49.9221C262.429 43.6738 258.498 40.5497 250.634 40.5497C247.744 40.5497 244.131 41.1023 239.795 42.2074C235.502 43.3125 232.782 43.8651 231.634 43.8651C230.487 43.8651 229.424 43.2913 228.447 42.1437C227.511 40.996 227.044 39.5508 227.044 37.8081C227.044 34.9603 228.744 32.7288 232.145 31.1136C236.905 28.8608 242.643 27.7345 249.359 27.7345H250.953C261.877 27.7345 269.655 30.8373 274.288 37.0431C276.073 39.4233 277.242 42.2712 277.795 45.5866C278.347 48.8594 278.624 54.5764 278.624 62.7373C278.624 70.8558 278.9 76.5514 279.453 79.8243C280.005 83.0972 280.281 85.8388 280.281 88.049C280.281 90.2168 279.856 91.8107 279.006 92.8308C278.156 93.8084 276.328 94.2972 273.523 94.2972C270.718 94.2972 268.784 94.021 267.721 93.4684C266.659 92.9158 265.66 92.2145 264.725 91.3644C263.832 90.5143 263.109 90.0893 262.557 90.0893C262.004 90.0893 259.56 90.9606 255.225 92.7033C250.889 94.4035 247.149 95.2536 244.003 95.2536H242.473C236.353 95.2536 231.549 93.4046 228.064 89.7067C224.579 85.9663 222.836 81.4607 222.836 76.1901V73.066C222.836 70.5582 223.516 68.0292 224.876 65.4789C228.617 58.4231 237.861 54.5976 252.611 54.0025C257.711 53.79 260.623 53.4925 261.345 53.1099C262.068 52.6849 262.429 51.6223 262.429 49.9221Z" fill="black"/>
<path d="M210.658 84.9887V87.8578C210.658 90.9606 210.021 92.8734 208.746 93.5959C207.513 94.276 205.303 94.6161 202.115 94.6161H198.736C192.615 94.6161 189.555 89.813 189.555 80.2069V79.1868L189.937 74.9788C190.065 73.7461 190.129 73.066 190.129 72.9385L190.384 70.8983C190.596 68.5605 190.702 65.8614 190.702 62.8011V53.62L190.766 51.3248V44.3114L190.83 40.741V33.7277L190.894 31.3687V24.3553L190.957 21.9963C190.957 18.5534 190.787 15.4718 190.447 12.7515C190.107 10.0312 189.937 7.67215 189.937 5.67441C189.937 3.63417 190.341 2.18901 191.149 1.33891C191.999 0.446302 193.656 0 196.122 0H199.501C203.326 0.042505 205.452 1.38141 205.877 4.01672C206.047 5.20686 206.132 10.4987 206.132 19.8923L206.068 21.1037C206.068 21.8688 206.068 22.6339 206.068 23.399L206.004 24.5466C206.004 25.3117 206.004 26.0768 206.004 26.8419L205.94 30.3485V35.0028L205.877 36.2142V42.0162L205.813 43.2276V49.0295L205.749 52.5361V59.6132L205.877 64.14C205.877 67.2429 206.663 71.2808 208.236 76.2539C209.851 81.227 210.658 84.1386 210.658 84.9887Z" fill="black"/>
<path d="M141.734 67.0728C138.121 67.0728 136.314 71.6208 136.314 80.7169C136.314 85.8175 135.656 89.1116 134.338 90.5993C133.02 92.087 130.746 92.8308 127.516 92.8308C124.328 92.8308 122.373 92.1933 121.65 90.9181C120.928 89.6004 120.566 85.3074 120.566 78.0391L120.439 74.2774L120.375 68.4117V54.5126L120.439 52.5361V40.5497C120.439 17.512 120.503 5.61064 120.63 4.84555C121.098 1.95521 123.754 0.51004 128.6 0.51004C130.81 0.51004 132.383 0.85008 133.318 1.53016C134.295 2.16773 135.06 3.67666 135.613 6.05694C136.166 8.39471 136.442 16.3006 136.442 29.7747C136.442 43.2063 137.271 49.9221 138.928 49.9221C140.076 49.9221 143.179 47.308 148.237 42.0799C153.338 36.8518 156.1 34.089 156.525 33.7914C158.778 32.1762 161.881 31.3686 165.834 31.3686C169.787 31.3686 171.764 31.985 171.764 33.2176C171.764 34.6628 168.979 39.0195 163.411 46.2879C157.843 53.5562 155.059 57.743 155.059 58.8481C155.059 59.9532 156.313 62.206 158.821 65.6064C161.371 68.9643 164.771 74.0011 169.022 80.7169C173.272 87.4327 175.398 91.0669 175.398 91.6194C175.398 92.9796 173.889 93.6597 170.871 93.6597H169.086C165.133 93.6597 161.902 92.3845 159.395 89.8342C157.907 88.304 154.995 84.1386 150.66 77.3378C146.324 70.4945 143.349 67.0728 141.734 67.0728Z" fill="black"/>
</svg>
